<?xml version="1.0" encoding="UTF-8"?>
<!DOCTYPE svg PUBLIC "-//W3C//DTD SVG 1.1//EN" "http://www.w3.org/Graphics/SVG/1.1/DTD/svg11.dtd">
<!-- Creator: CorelDRAW 2020 (64-Bit) -->
<svg xmlns="http://www.w3.org/2000/svg" xml:space="preserve" width="4.88105in" height="0.594362in" version="1.1" style="shape-rendering:geometricPrecision; text-rendering:geometricPrecision; image-rendering:optimizeQuality; fill-rule:evenodd; clip-rule:evenodd"
viewBox="0 0 4881.06 594.36"
 xmlns:xlink="http://www.w3.org/1999/xlink"
 xmlns:xodm="http://www.corel.com/coreldraw/odm/2003">
 <defs>
  <style type="text/css">
   <![CDATA[
    .fil0 {fill:black;fill-rule:nonzero}
   ]]>
  </style>
 </defs>
 <g id="Layer_x0020_1">
  <metadata id="CorelCorpID_0Corel-Layer"/>
  <g id="_2243749134416">
   <g>
    <g>
     <g>
      <g>
       <path class="fil0" d="M553.04 408.72c7.19,37.19 24.26,66.06 51.2,86.58 26.91,20.57 60.06,30.81 99.48,30.81 54.94,0 94.89,-20.24 119.87,-60.77l61.6 34.96c-40.53,62.72 -101.56,94.06 -183.14,94.06 -66.06,0 -119.75,-20.65 -161.09,-61.99 -41.36,-41.34 -62.03,-93.65 -62.03,-156.95 0,-62.68 20.26,-114.87 60.79,-156.5 40.51,-41.62 92.95,-62.43 157.33,-62.43 61.06,0 110.85,21.5 149.42,64.51 38.57,43 57.86,94.79 57.86,155.28 0,10.53 -0.83,21.34 -2.5,32.44l-348.8 0zm144.02 -183.97l0 0c-38.86,0 -71.06,10.97 -96.56,32.88 -25.55,21.95 -41.36,51.22 -47.46,87.84l278.05 0c-6.11,-39.39 -21.65,-69.39 -46.62,-89.91 -24.98,-20.53 -54.12,-30.81 -87.41,-30.81z"/>
       <path class="fil0" d="M1444.94 156.5c46.63,0 84.35,15.12 113.2,45.36 28.86,30.24 43.29,71.17 43.29,122.8l0 258.89 -72.41 0 0 -256.41c0,-32.15 -8.33,-57.15 -24.98,-74.91 -16.65,-17.76 -38.86,-26.63 -66.6,-26.63 -31.08,0 -55.91,10.41 -74.51,31.22 -18.59,20.81 -27.88,52.6 -27.88,95.32l0 231.41 -72.42 0 0 -256.41c0,-32.15 -7.93,-57.15 -23.74,-74.91 -15.81,-17.76 -37.34,-26.63 -64.51,-26.63 -30.52,0 -55.93,10.53 -76.17,31.63 -20.26,21.1 -30.39,52.72 -30.39,94.91l0 231.41 -72.43 0 0 -416.24 72.43 0 0 55.77c28.31,-44.39 69.63,-66.58 124.04,-66.58 56.06,0 96.84,23.57 122.37,70.77 28.86,-47.19 72.44,-70.77 130.7,-70.77z"/>
       <path class="fil0" d="M2056.15 167.31l72.41 0 0 416.24 -72.41 0 0 -71.58c-36.09,54.96 -88.53,82.39 -157.35,82.39 -58.27,0 -107.94,-21.22 -149,-63.66 -41.09,-42.48 -61.62,-94.22 -61.62,-155.28 0,-61.05 20.53,-112.8 61.62,-155.24 41.06,-42.48 90.73,-63.69 149,-63.69 68.82,0 121.26,27.48 157.35,82.43l0 -71.62zm-148.18 357.13l0 0c42.17,0 77.41,-14.27 105.72,-42.88 28.29,-28.57 42.46,-63.94 42.46,-106.13 0,-42.15 -14.17,-77.56 -42.46,-106.13 -28.31,-28.58 -63.56,-42.89 -105.72,-42.89 -41.63,0 -76.58,14.31 -104.89,42.89 -28.31,28.57 -42.46,63.98 -42.46,106.13 0,42.19 14.15,77.56 42.46,106.13 28.31,28.61 63.27,42.88 104.89,42.88z"/>
       <path class="fil0" d="M2317.89 237.27c23.86,-51.63 67.15,-77.44 129.87,-77.44l0 75.77c-35.53,-1.67 -66.06,7.76 -91.58,28.29 -25.52,20.53 -38.29,53.57 -38.29,99.06l0 220.59 -72.44 0 0 -416.24 72.44 0 0 69.96z"/>
       <polygon class="fil0" points="2872.7,583.55 2782.8,583.55 2593,386.48 2593,583.55 2520.56,583.55 2520.56,0.81 2593,0.81 2593,350.56 2772.8,167.31 2866.05,167.31 2667.08,368.76 "/>
       <path class="fil0" d="M2967.02 408.72c7.2,37.19 24.27,66.06 51.2,86.58 26.91,20.57 60.06,30.81 99.49,30.81 54.94,0 94.89,-20.24 119.87,-60.77l61.6 34.96c-40.52,62.72 -101.56,94.06 -183.14,94.06 -66.06,0 -119.75,-20.65 -161.09,-61.99 -41.36,-41.34 -62.03,-93.65 -62.03,-156.95 0,-62.68 20.26,-114.87 60.79,-156.5 40.51,-41.62 92.94,-62.43 157.33,-62.43 61.05,0 110.85,21.5 149.42,64.51 38.57,43 57.86,94.79 57.86,155.28 0,10.53 -0.83,21.34 -2.5,32.44l-348.8 0zm144.02 -183.97l0 0c-38.86,0 -71.06,10.97 -96.56,32.88 -25.55,21.95 -41.36,51.22 -47.46,87.84l278.06 0c-6.12,-39.39 -21.65,-69.39 -46.62,-89.91 -24.98,-20.53 -54.12,-30.81 -87.41,-30.81z"/>
       <path class="fil0" d="M3625.83 237.27l-110.7 0 0 225.6c0,20.52 4.02,35.08 12.07,43.7 8.03,8.61 20.39,13.05 37.03,13.33 16.67,0.28 37.19,-0.16 61.6,-1.26l0 64.91c-63.25,8.33 -109.61,3.21 -139.02,-15.41 -29.43,-18.57 -44.13,-53.69 -44.13,-105.28l0 -225.6 -82.41 0 0 -69.96 82.41 0 0 -94.87 72.44 -72.43 0 167.31 110.7 0 0 69.96z"/>
       <path class="fil0" d="M3752.55 408.72c7.2,37.19 24.27,66.06 51.2,86.58 26.91,20.57 60.06,30.81 99.49,30.81 54.94,0 94.89,-20.24 119.87,-60.77l61.6 34.96c-40.52,62.72 -101.56,94.06 -183.14,94.06 -66.06,0 -119.75,-20.65 -161.09,-61.99 -41.36,-41.34 -62.03,-93.65 -62.03,-156.95 0,-62.68 20.26,-114.87 60.79,-156.5 40.51,-41.62 92.94,-62.43 157.33,-62.43 61.05,0 110.85,21.5 149.42,64.51 38.57,43 57.86,94.79 57.86,155.28 0,10.53 -0.83,21.34 -2.5,32.44l-348.8 0zm144.02 -183.97l0 0c-38.86,0 -71.06,10.97 -96.56,32.88 -25.55,21.95 -41.36,51.22 -47.46,87.84l278.06 0c-6.12,-39.39 -21.65,-69.39 -46.62,-89.91 -24.98,-20.53 -54.12,-30.81 -87.41,-30.81z"/>
       <path class="fil0" d="M4539.3 0.81l72.44 0 0 582.73 -72.44 0 0 -71.58c-36.06,54.96 -88.53,82.39 -157.31,82.39 -58.29,0 -107.96,-21.22 -149.02,-63.66 -41.1,-42.48 -61.63,-94.22 -61.63,-155.28 0,-61.05 20.53,-112.8 61.63,-155.24 41.05,-42.48 90.72,-63.69 149.02,-63.69 68.78,0 121.25,27.48 157.31,82.43l0 -238.12zm-148.16 523.63l0 0c42.15,0 77.43,-14.27 105.72,-42.88 28.29,-28.57 42.44,-63.94 42.44,-106.13 0,-42.15 -14.15,-77.56 -42.44,-106.13 -28.29,-28.58 -63.57,-42.89 -105.72,-42.89 -41.63,0 -76.58,14.31 -104.89,42.89 -28.31,28.57 -42.46,63.98 -42.46,106.13 0,42.19 14.15,77.56 42.46,106.13 28.31,28.61 63.27,42.88 104.89,42.88z"/>
      </g>
     </g>
     <g>
      <g>
       <path class="fil0" d="M4812.75 509.99c12.03,-3.73 17.43,-13.28 17.43,-24.9 0,-14.11 -9.96,-27.39 -31.96,-27.39l-25.73 0 0 86.73 11.21 0 0 -32.37 17.84 0 18.26 32.37 12.44 0 -19.5 -34.44zm-14.11 -8.72l0 0 -14.94 0 0 -32.78 14.94 0c13.69,0 20.33,6.64 20.33,16.6 0,9.54 -6.22,16.18 -20.33,16.18z"/>
      </g>
      <path class="fil0" d="M4857.39 442.69c-15.91,-15.91 -35.5,-24.07 -59.17,-24.07 -23.26,0 -42.85,8.17 -58.76,24.07 -15.51,15.92 -23.67,35.51 -23.67,59.17 0,23.67 8.16,43.26 23.67,59.18 15.91,15.91 35.5,24.07 58.76,24.07 23.67,0 43.26,-8.16 59.17,-24.07 15.51,-15.92 23.67,-35.51 23.67,-59.18 0,-23.67 -8.16,-43.25 -23.67,-59.17zm-8.98 109.78l0 0c-13.47,13.46 -29.79,20 -50.19,20 -20,0 -36.32,-6.53 -49.79,-20 -13.47,-13.87 -20,-30.2 -20,-50.6 0,-20.4 6.53,-36.72 20,-50.6 13.47,-13.46 29.79,-20 49.79,-20 20.41,0 36.72,6.53 50.19,20 13.47,13.87 20,30.2 20,50.6 0,20.41 -6.53,36.73 -20,50.6z"/>
     </g>
    </g>
    <path class="fil0" d="M310.45 389.06l108.29 189.19 -94.51 0 -102.61 -176.9 -139.2 0 0 176.9 -82.42 0 0 -218.11c0,-22.48 18.73,-41.21 41.21,-41.21l201.87 0c51.2,0 93.24,-41.62 93.24,-93.24 0,-51.2 -42.04,-93.24 -93.24,-93.24l-160.67 0 0 41.21 -82.42 -82.41 82.42 -82.42 0 41.21 160.67 0c96.57,0 175.65,79.09 175.65,175.65 0,122.27 -108.29,163.36 -108.29,163.36z"/>
   </g>
  </g>
 </g>
</svg>
