<?xml version="1.0" encoding="UTF-8"?>
<!DOCTYPE svg PUBLIC "-//W3C//DTD SVG 1.1//EN" "http://www.w3.org/Graphics/SVG/1.1/DTD/svg11.dtd">
<!-- Creator: CorelDRAW 2020 (64-Bit) -->
<svg xmlns="http://www.w3.org/2000/svg" xml:space="preserve" width="0.418732in" height="0.569406in" version="1.1" style="shape-rendering:geometricPrecision; text-rendering:geometricPrecision; image-rendering:optimizeQuality; fill-rule:evenodd; clip-rule:evenodd"
viewBox="0 0 35.92 48.85"
 xmlns:xlink="http://www.w3.org/1999/xlink"
 xmlns:xodm="http://www.corel.com/coreldraw/odm/2003">
 <defs>
  <style type="text/css">
   <![CDATA[
    .fil0 {fill:black;fill-rule:nonzero}
   ]]>
  </style>
 </defs>
 <g id="Layer_x0020_1">
  <metadata id="CorelCorpID_0Corel-Layer"/>
  <path class="fil0" d="M26.63 32.62l9.29 16.23 -8.11 0 -8.8 -15.18 -11.94 0 0 15.18 -7.07 0 0 -18.71c0,-1.93 1.61,-3.54 3.54,-3.54l17.32 0c4.39,0 8,-3.57 8,-8 0,-4.39 -3.61,-8 -8,-8l-13.78 0 0 3.54 -7.07 -7.07 7.07 -7.07 0 3.54 13.78 0c8.28,0 15.07,6.78 15.07,15.07 0,10.49 -9.29,14.01 -9.29,14.01z"/>
 </g>
</svg>
